<svg width="14" height="15" viewBox="0 0 14 15" fill="none" xmlns="http://www.w3.org/2000/svg">
<g clip-path="url(#clip0_1320_3930)">
<path d="M7 3.90015C7.385 3.90015 7.7 4.21515 7.7 4.60015V7.40015C7.7 7.78515 7.385 8.10015 7 8.10015C6.615 8.10015 6.3 7.78515 6.3 7.40015V4.60015C6.3 4.21515 6.615 3.90015 7 3.90015ZM6.993 0.400146C3.129 0.400146 0 3.53615 0 7.40015C0 11.2641 3.129 14.4001 6.993 14.4001C10.864 14.4001 14 11.2641 14 7.40015C14 3.53615 10.864 0.400146 6.993 0.400146ZM7 13.0001C3.906 13.0001 1.4 10.4941 1.4 7.40015C1.4 4.30615 3.906 1.80015 7 1.80015C10.094 1.80015 12.6 4.30615 12.6 7.40015C12.6 10.4941 10.094 13.0001 7 13.0001ZM7.7 10.9001H6.3V9.50015H7.7V10.9001Z" fill="#B80303"/>
</g>
<defs>
<clipPath id="clip0_1320_3930">
<rect width="14" height="14" fill="white" transform="translate(0 0.400146)"/>
</clipPath>
</defs>
</svg>
