<svg width="20" height="20" viewBox="0 0 20 20" fill="none" xmlns="http://www.w3.org/2000/svg">
<g id="Icon Button / Basic 20/16">
<path id="Union" fill-rule="evenodd" clip-rule="evenodd" d="M6.50024 2.02344C5.53375 2.02344 4.75024 2.80694 4.75024 3.77344V4.83709H2.76172C2.34751 4.83709 2.01172 5.17287 2.01172 5.58709C2.01172 6.0013 2.3475 6.33709 2.76172 6.33709H3.36499L3.87364 16.3272C3.92102 17.2579 4.68946 17.9882 5.62137 17.9882H14.3795C15.3114 17.9882 16.0798 17.2579 16.1272 16.3272L16.6358 6.33709H17.2389C17.6531 6.33709 17.9889 6.0013 17.9889 5.58709C17.9889 5.17287 17.6531 4.83709 17.2389 4.83709H15.2502V3.77344C15.2502 2.80694 14.4667 2.02344 13.5002 2.02344H6.50024ZM13.7502 4.83709V3.77344C13.7502 3.63537 13.6383 3.52344 13.5002 3.52344H6.50024C6.36217 3.52344 6.25024 3.63537 6.25024 3.77344V4.83709H13.7502ZM4.86799 6.35782L5.3717 16.2509C5.37846 16.3839 5.48824 16.4882 5.62137 16.4882H14.3795C14.5126 16.4882 14.6224 16.3839 14.6291 16.2509L15.1328 6.35782H4.86799ZM8.45387 14.6508C8.03986 14.6639 7.69366 14.3388 7.68062 13.9248L7.5126 8.59272C7.49955 8.17872 7.8246 7.83252 8.23861 7.81948C8.65261 7.80643 8.99881 8.13147 9.01186 8.54548L9.17987 13.8776C9.19292 14.2916 8.86787 14.6378 8.45387 14.6508ZM12.4894 8.61757C12.5103 8.20388 12.1918 7.85163 11.7781 7.83081C11.3644 7.80999 11.0122 8.12847 10.9913 8.54216L10.7236 13.8602C10.7028 14.2739 11.0213 14.6262 11.435 14.647C11.8487 14.6678 12.2009 14.3493 12.2217 13.9357L12.4894 8.61757Z" fill="#444444"/>
</g>
</svg>
