<svg width="40" height="40" viewBox="0 0 40 40" fill="none" xmlns="http://www.w3.org/2000/svg">
<rect width="40" height="40" rx="8" fill="#F8F8F8"/>
<path d="M10 8.75H27C28.6569 8.75 30 10.0931 30 11.75V31.25H13C11.3431 31.25 10 29.9069 10 28.25V8.75Z" fill="#4EA4F3"/>
<rect x="13.75" y="15" width="11.25" height="2.5" rx="1" fill="white"/>
<rect x="13.75" y="21.25" width="6.25" height="2.5" rx="1" fill="white"/>
<path fill-rule="evenodd" clip-rule="evenodd" d="M33.914 15.6034C34.3045 15.994 34.3045 16.6271 33.914 17.0177L25.2585 25.6731C25.1556 25.776 25.0316 25.8552 24.895 25.9052L21.9323 26.9891C21.5327 27.1353 21.1447 26.7473 21.2909 26.3477L22.3748 23.385C22.4248 23.2484 22.504 23.1244 22.6068 23.0215L31.2623 14.366C31.6529 13.9755 32.286 13.9755 32.6766 14.366L33.914 15.6034Z" fill="#2A4C52"/>
</svg>
