<svg width="24" height="24" viewBox="0 0 24 24" fill="none" xmlns="http://www.w3.org/2000/svg">
<rect x="1" y="5.5" width="22" height="15" rx="2" fill="black"/>
<path d="M10.0923 16.587C8.69073 16.587 7.69004 15.8194 7.66829 14.7099H9.0015C9.02326 15.1792 9.4832 15.4931 10.0954 15.4931C10.7294 15.4931 11.1831 15.1419 11.18 14.6291C11.1831 14.1102 10.7232 13.7434 9.97423 13.7434H9.38376V12.7645H9.97423C10.6051 12.7645 11.0433 12.4227 11.0402 11.9192C11.0433 11.4344 10.6673 11.1019 10.1047 11.1019C9.54225 11.1019 9.08231 11.4157 9.06366 11.9037H7.7957C7.81746 10.8097 8.80572 10.0483 10.111 10.0483C11.4349 10.0483 12.3206 10.8346 12.3143 11.8384C12.3206 12.5532 11.8233 13.0597 11.1054 13.1872V13.2369C12.044 13.3519 12.5599 13.9206 12.5536 14.7162C12.5599 15.8039 11.525 16.587 10.0923 16.587ZM16.0226 10.1354V16.5H14.6987V11.394H14.6614L13.2008 12.3108V11.136L14.7764 10.1354H16.0226Z" fill="white"/>
<path d="M5 5C5 4.44772 5.44772 4 6 4C6.55228 4 7 4.44772 7 5V7H5V5Z" fill="black"/>
<path d="M9 5C9 4.44772 9.44772 4 10 4C10.5523 4 11 4.44772 11 5V7H9V5Z" fill="black"/>
<path d="M13 5C13 4.44772 13.4477 4 14 4C14.5523 4 15 4.44772 15 5V7H13V5Z" fill="black"/>
<path d="M17 5C17 4.44772 17.4477 4 18 4C18.5523 4 19 4.44772 19 5V7H17V5Z" fill="black"/>
</svg>
