<svg width="48" height="48" viewBox="0 0 48 48" fill="none" xmlns="http://www.w3.org/2000/svg">
<rect width="48" height="48" rx="8" fill="white"/>
<path d="M9.9375 13.6805C9.9375 11.5426 11.6707 9.80939 13.8087 9.80939H31.8739C34.0119 9.80939 35.745 11.5426 35.745 13.6805V34.3269C35.745 36.4649 34.0119 38.1981 31.8739 38.1981H13.8087C11.6707 38.1981 9.9375 36.4649 9.9375 34.3269V13.6805Z" fill="#D08CE9"/>
<path fill-rule="evenodd" clip-rule="evenodd" d="M39.0251 21.347C39.529 21.8509 39.529 22.6679 39.0251 23.1718L30.7302 31.4668C30.5642 31.6328 30.356 31.7504 30.1282 31.8069L26.9663 32.5906C26.4947 32.7075 26.0679 32.2808 26.1848 31.8091L26.9685 28.6472C27.025 28.4193 27.1426 28.2112 27.3086 28.0452L35.6034 19.7502C36.1074 19.2462 36.9244 19.2462 37.4283 19.7502L39.0251 21.347Z" fill="#6E37A6"/>
<path d="M18.7291 25.2498C17.238 24.7514 13.8926 22.6543 13.8926 19.0995C13.8926 17.529 15.1734 16.2594 16.7601 16.2594C17.6968 16.2594 18.5284 16.7014 19.0541 17.3973C19.5702 16.7108 20.4114 16.2594 21.3481 16.2594C22.9348 16.2594 24.2156 17.529 24.2156 19.0995C24.2156 22.6543 20.8702 24.7514 19.3695 25.2498C19.1975 25.3063 18.9012 25.3063 18.7291 25.2498Z" fill="white"/>
<rect x="13.8926" y="29.1641" width="10.323" height="3.22599" rx="1.29039" fill="white"/>
</svg>
