<svg width="190" height="33" viewBox="0 0 190 33" fill="none" xmlns="http://www.w3.org/2000/svg">
<g clip-path="url(#clip0_5_36926)">
<path d="M49.0053 0H33.0018C28.5846 0 25 3.58456 25 8.00176V24.0053C25 28.4225 28.5846 32.0071 33.0018 32.0071H49.0053C53.4225 32.0071 57.0071 28.4225 57.0071 24.0053V8.00176C57 3.58456 53.4225 0 49.0053 0ZM31.1389 20.2867C28.7751 20.2867 26.8558 18.3674 26.8558 16.0035C26.8558 13.6397 28.7751 11.7204 31.1389 11.7204C33.5028 11.7204 35.4221 13.6397 35.4221 16.0035C35.4221 18.3674 33.5028 20.2867 31.1389 20.2867ZM49.6827 20.2867C48.2573 20.2867 46.9943 19.5881 46.2181 18.5155C45.4701 17.7394 44.7292 18.1204 44.3694 18.4238C43.6002 19.5528 42.3019 20.2937 40.8342 20.2937C38.4703 20.2937 36.551 18.3744 36.551 16.0106C36.551 13.6467 38.4703 11.7275 40.8342 11.7275C42.2948 11.7275 43.5861 12.4613 44.3623 13.5832C44.7222 13.8867 45.4701 14.2889 46.2322 13.4845C47.0084 12.419 48.2644 11.7275 49.6827 11.7275C52.0465 11.7275 53.9658 13.6467 53.9658 16.0106C53.9658 18.3744 52.0465 20.2937 49.6827 20.2937V20.2867ZM54.3045 20.1032C53.8318 20.1032 53.4507 19.7222 53.4507 19.2494C53.4507 18.7766 53.8318 18.3956 54.3045 18.3956C54.7773 18.3956 55.1583 18.7766 55.1583 19.2494C55.1583 19.7222 54.7773 20.1032 54.3045 20.1032Z" fill="white"/>
<path d="M106.935 3.85976C106.865 1.71466 105.101 0 102.941 0H99.6884C99.2721 0 98.9404 0.338699 98.9404 0.74796V7.24675C98.9404 7.66307 99.2791 7.99471 99.6884 7.99471H102.941C105.15 7.99471 106.942 6.20243 106.942 3.99383C106.942 3.97971 106.942 3.9656 106.942 3.95149C106.942 3.91621 106.942 3.88798 106.942 3.8527L106.935 3.85976ZM102.941 6.49879H100.443V1.50298H102.941C104.324 1.50298 105.439 2.62492 105.439 4.00088C105.439 5.37685 104.317 6.49879 102.941 6.49879Z" fill="white"/>
<path d="M71.8443 6.83043C72.1548 6.51996 72.1548 6.01191 71.8443 5.70143C71.5339 5.39096 71.0399 5.39096 70.7224 5.69438C70.7224 5.69438 70.7224 5.69438 70.7153 5.70143C70.7153 5.70143 70.7153 5.70849 70.7083 5.71555C70.2778 6.14598 69.6781 6.40706 69.0218 6.40706C68.3656 6.40706 67.7588 6.13892 67.3213 5.70143C66.8908 5.26395 66.6157 4.67122 66.6157 4.00088C66.6157 3.33054 66.8767 2.74487 67.3072 2.31444C67.3072 2.31444 67.3072 2.31444 67.3213 2.30739L67.3283 2.29327C67.7588 1.86284 68.3585 1.60176 69.0148 1.60176C69.671 1.60176 70.2567 1.86284 70.6871 2.28622C70.6942 2.28622 70.7012 2.30033 70.7083 2.30739C70.7153 2.31444 70.7224 2.3215 70.7294 2.32856C71.0399 2.61786 71.5338 2.61081 71.8373 2.30739C72.1407 2.00397 72.1477 1.51709 71.8584 1.19956C71.8584 1.1925 71.8443 1.18545 71.8373 1.17839C71.8302 1.17133 71.8232 1.16428 71.809 1.15017C71.0893 0.437486 70.1014 0 69.0077 0C67.914 0 66.9261 0.437486 66.2064 1.15017C66.1993 1.15722 66.1923 1.16428 66.1782 1.17839C66.1782 1.17839 66.1641 1.1925 66.157 1.19956C65.4443 1.91929 65.0068 2.90717 65.0068 4.00088C65.0068 5.0946 65.4514 6.10364 66.1782 6.83043C66.905 7.55722 67.8999 8.00176 69.0077 8.00176C70.1155 8.00176 71.1105 7.55722 71.8373 6.83043H71.8443Z" fill="white"/>
<path d="M85.9779 0C83.7693 0 81.9771 1.79228 81.9771 4.00088C81.9771 6.20948 83.7693 8.00176 85.9779 8.00176C88.1865 8.00176 89.9788 6.20948 89.9788 4.00088C89.9788 1.79228 88.1865 0 85.9779 0ZM85.9779 6.4C84.6514 6.4 83.5788 5.32745 83.5788 4.00088C83.5788 2.67431 84.6514 1.60176 85.9779 1.60176C87.3045 1.60176 88.3771 2.67431 88.3771 4.00088C88.3771 5.32745 87.3045 6.4 85.9779 6.4Z" fill="white"/>
<path d="M80.7 6.4H77.4965C76.8332 6.4 76.2334 6.13186 75.7959 5.69438C75.3655 5.25689 75.0903 4.66417 75.0903 3.99383V0.797354C75.0903 0.352811 74.7304 0 74.293 0C74.0742 0 73.8696 0.091731 73.7285 0.232856C73.5803 0.37398 73.4956 0.578611 73.4956 0.797354V4.00088C73.4956 5.10871 73.9402 6.10364 74.6669 6.83043C75.3937 7.55722 76.3887 8.00176 77.4965 8.00176H80.7C80.9188 8.00176 81.1234 7.91003 81.2645 7.76891C81.4127 7.62778 81.4974 7.42315 81.4974 7.20441C81.4974 6.75987 81.1375 6.40706 80.7 6.40706V6.4Z" fill="white"/>
<path d="M98.2206 0.232856C98.0794 0.0846748 97.8748 0 97.6561 0C97.2115 0 96.8587 0.359868 96.8587 0.797354V4.00088C96.8587 4.66417 96.5906 5.26395 96.1531 5.70143C95.7156 6.13186 95.1158 6.40706 94.4525 6.40706C93.7893 6.40706 93.1895 6.13892 92.752 5.70143C92.3216 5.26395 92.0464 4.67122 92.0464 4.00088V1.60176V0.80441C92.0464 0.359868 91.6865 0.00705623 91.249 0.00705623C91.0303 0.00705623 90.8256 0.0987872 90.6845 0.239912C90.5363 0.381036 90.4517 0.585667 90.4517 0.80441V4.00794C90.4517 5.11577 90.8962 6.11069 91.623 6.83749C92.3498 7.56428 93.3447 8.00882 94.4525 8.00882C95.5604 8.00882 96.5553 7.56428 97.2821 6.83749C98.0089 6.11069 98.4534 5.11577 98.4534 4.00794V0.797354C98.4534 0.578611 98.3617 0.37398 98.2206 0.232856Z" fill="white"/>
<path d="M114.471 16.4689C114.182 16.1796 113.779 15.9961 113.342 15.9961H106.942C104.733 15.9961 102.736 16.8922 101.29 18.3388C99.8434 19.7853 98.9473 21.7822 98.9473 23.9908V30.3908C98.9473 30.8353 99.1237 31.2305 99.42 31.5198C99.7093 31.8091 100.112 31.9926 100.549 31.9926C101.431 31.9926 102.151 31.2728 102.151 30.3908V23.9908C102.151 22.6642 102.687 21.4647 103.555 20.5968C104.423 19.7288 105.622 19.1926 106.949 19.1926H113.349C114.231 19.1926 114.951 18.4728 114.951 17.5908C114.951 17.1463 114.774 16.7511 114.478 16.4618L114.471 16.4689Z" fill="white"/>
<path d="M129.557 18.3458C129.557 18.3458 129.522 18.3106 129.501 18.2964C128.061 16.8781 126.086 16.0032 123.898 16.0032C121.711 16.0032 119.735 16.8781 118.296 18.2964C118.274 18.3106 118.26 18.3317 118.239 18.3458C118.218 18.36 118.204 18.3811 118.197 18.3952C116.779 19.8347 115.896 21.8175 115.896 24.0049C115.896 26.1924 116.793 28.2105 118.239 29.664C119.686 31.1106 121.683 32.0067 123.898 32.0067C125.698 32.0067 127.363 31.414 128.696 30.4049V30.1086C128.696 30.1086 128.718 30.1086 128.725 30.1086C128.704 30.2074 128.696 30.3062 128.696 30.412C128.696 31.3011 129.416 32.0138 130.298 32.0138C131.18 32.0138 131.9 31.294 131.9 30.412V24.012C131.9 21.8246 131.025 19.8418 129.6 18.4023C129.586 18.3882 129.571 18.367 129.557 18.3529V18.3458ZM127.321 27.3778C127.321 27.3778 127.292 27.406 127.278 27.4202C126.41 28.274 125.218 28.8032 123.905 28.8032C122.593 28.8032 121.379 28.2669 120.511 27.399C119.643 26.5311 119.107 25.3315 119.107 24.0049C119.107 22.6925 119.636 21.5 120.49 20.6321C120.504 20.6179 120.518 20.6038 120.532 20.5897C121.4 19.7359 122.593 19.2067 123.905 19.2067C125.218 19.2067 126.389 19.7218 127.257 20.5686C127.285 20.5968 127.313 20.625 127.342 20.6532C128.188 21.5211 128.704 22.6995 128.704 24.0049C128.704 25.3103 128.174 26.517 127.321 27.3778Z" fill="white"/>
<path d="M157.825 16.0032C153.407 16.0032 149.823 19.5877 149.823 24.0049C149.823 28.4221 153.407 32.0067 157.825 32.0067C162.242 32.0067 165.826 28.4221 165.826 24.0049C165.826 19.5877 162.242 16.0032 157.825 16.0032ZM157.825 28.8032C155.171 28.8032 153.026 26.6581 153.026 24.0049C153.026 21.3518 155.171 19.2067 157.825 19.2067C160.478 19.2067 162.623 21.3589 162.623 24.0049C162.623 26.651 160.471 28.8032 157.825 28.8032Z" fill="white"/>
<path d="M96.3788 16.0032H83.5788C82.6968 16.0032 81.9771 16.7229 81.9771 17.6049C81.9771 18.487 82.6968 19.2067 83.5788 19.2067H88.3771V30.4049C88.3771 31.287 89.0968 32.0067 89.9788 32.0067C90.8608 32.0067 91.5806 31.287 91.5806 30.4049V19.2067H96.3788C97.2608 19.2067 97.9806 18.487 97.9806 17.6049C97.9806 16.7229 97.2608 16.0032 96.3788 16.0032Z" fill="white"/>
<path d="M147.261 16.0032H134.461C133.579 16.0032 132.859 16.7229 132.859 17.6049C132.859 18.487 133.579 19.2067 134.461 19.2067H139.259V30.4049C139.259 31.287 139.979 32.0067 140.861 32.0067C141.743 32.0067 142.463 31.287 142.463 30.4049V19.2067H147.261C148.143 19.2067 148.863 18.487 148.863 17.6049C148.863 16.7229 148.143 16.0032 147.261 16.0032Z" fill="white"/>
<path d="M77.8139 20.8226C77.0024 20.3992 76.0781 20.1593 75.0902 20.1593H68.6902C68.4221 20.1593 68.2104 19.9476 68.2104 19.6794C68.2104 19.4113 68.4221 19.1996 68.6902 19.1996H76.2121C77.0942 19.1996 77.8139 18.4799 77.8139 17.5979C77.8139 16.7158 77.0942 15.9961 76.2121 15.9961H68.6902C66.8203 15.9961 65.275 17.3932 65.0421 19.1996C65.028 19.3125 65.0139 19.4325 65.0139 19.5524C65.0139 19.5948 65.0139 19.6371 65.0139 19.6794C65.0139 19.7218 65.0139 19.7641 65.0139 19.8065C65.0139 19.9264 65.028 20.0464 65.0421 20.1593C65.275 21.9657 66.8203 23.3628 68.6902 23.3628H75.0902C76.572 23.3628 77.7786 24.5553 77.8139 26.0301V26.1359C77.7857 27.6177 76.572 28.8032 75.0902 28.8032H66.6086C65.7266 28.8032 65.0068 29.5229 65.0068 30.4049C65.0068 31.2869 65.7266 32.0067 66.6086 32.0067H75.0902C76.071 32.0067 76.9954 31.7668 77.8139 31.3434C78.9006 30.7859 79.7896 29.8969 80.3541 28.8032C80.7775 27.9917 81.0174 27.0673 81.0174 26.0794C81.0174 25.0916 80.7775 24.1743 80.3541 23.3557C79.7896 22.2691 78.9006 21.38 77.8139 20.8155V20.8226Z" fill="white"/>
</g>
<defs>
<clipPath id="clip0_5_36926">
<rect width="165.826" height="32.0137" fill="white"/>
</clipPath>
</defs>
</svg>
