<svg width="24" height="24" viewBox="0 0 24 24" fill="none" xmlns="http://www.w3.org/2000/svg">
<rect width="24" height="24" rx="2" fill="#1C2536"/>
<path d="M3.81818 6.27273C3.36818 6.27273 3 6.64091 3 7.09091V19.3636C3 20.2636 3.73636 21 4.63636 21H16.9091C17.3591 21 17.7273 20.6318 17.7273 20.1818C17.7273 19.7318 17.3591 19.3636 16.9091 19.3636H5.45455C5.00455 19.3636 4.63636 18.9955 4.63636 18.5455V7.09091C4.63636 6.64091 4.26818 6.27273 3.81818 6.27273ZM19.3636 3H7.90909C7.00909 3 6.27273 3.73636 6.27273 4.63636V16.0909C6.27273 16.9909 7.00909 17.7273 7.90909 17.7273H19.3636C20.2636 17.7273 21 16.9909 21 16.0909V4.63636C21 3.73636 20.2636 3 19.3636 3ZM18.5455 16.0909H8.72727C8.27727 16.0909 7.90909 15.7227 7.90909 15.2727V5.45455C7.90909 5.00455 8.27727 4.63636 8.72727 4.63636H18.5455C18.9955 4.63636 19.3636 5.00455 19.3636 5.45455V15.2727C19.3636 15.7227 18.9955 16.0909 18.5455 16.0909Z" fill="white"/>
</svg>
